<?xml version="1.0" encoding="UTF-8"?>
<svg version="1.1" xmlns="http://www.w3.org/2000/svg" width="487" height="512">
<path d="M0 0 C1.65 0.33 3.3 0.66 5 1 C9.51757812 14.55273437 14.03515625 28.10546875 18.55273438 41.65820312 C18.80073792 42.40220871 19.04874146 43.14621429 19.30426025 43.9127655 C19.7991862 45.39755351 20.29409994 46.88234558 20.78900146 48.36714172 C22.01887831 52.05694993 23.248969 55.74668659 24.47949219 59.4362793 C26.80831021 66.4197227 29.13507186 73.40383162 31.45483398 80.39028931 C32.54104942 83.6612498 33.62839371 86.93183456 34.71582031 90.20239258 C35.23005427 91.75005749 35.74374523 93.29790296 36.25683594 94.84594727 C36.97189726 97.00323886 37.68850764 99.16000526 38.40625 101.31640625 C38.62917725 101.9867691 38.85210449 102.65713196 39.08178711 103.34780884 C40.717477 108.23442478 42.47166971 113.06810955 44.31835938 117.87866211 C45 120 45 120 45 123 C55.20992027 116.64752549 64.97669025 109.79035017 74.68115234 102.69384766 C78.46588457 99.92921593 82.2635008 97.1824797 86.0625 94.4375 C87.17854614 93.63082886 87.17854614 93.63082886 88.31713867 92.80786133 C95.47042417 87.64570455 102.67534908 82.55817673 109.89111328 77.48388672 C112.72151589 75.49231609 115.54888817 73.49647456 118.37548828 71.49951172 C119.78293499 70.50611507 121.19145158 69.51423237 122.60107422 68.52392578 C126.30442317 65.91964631 129.98393317 63.28811963 133.63671875 60.61328125 C134.39855469 60.06091797 135.16039062 59.50855469 135.9453125 58.93945312 C137.40099288 57.88319724 138.85062648 56.81853844 140.29296875 55.74414062 C144.14848942 52.96168967 147.08778473 51.2012592 152 51 C152.33 51.33 152.66 51.66 153 52 C152.92947044 58.8937635 151.27413849 65.22887353 149.12109375 71.72265625 C148.83354721 72.61700378 148.54600067 73.51135132 148.2497406 74.43280029 C147.32157229 77.31245281 146.37960645 80.18738094 145.4375 83.0625 C144.78888467 85.06763198 144.14126694 87.07308691 143.49462891 89.07885742 C141.9384057 93.90010227 140.37239912 98.71808891 138.80255127 103.53491211 C137.14605422 108.62294944 135.50834419 113.71698621 133.875 118.8125 C133.58343018 119.71846924 133.29186035 120.62443848 132.99145508 121.55786133 C130.92126633 128.02298166 128.91392846 134.50657682 126.921875 140.99609375 C126.5150499 142.32124748 126.5150499 142.32124748 126.1000061 143.673172 C124.74087381 148.1035697 123.38539473 152.53505009 122.03466797 156.96801758 C121.53614612 158.59847412 121.03761154 160.22892677 120.5390625 161.859375 C120.31232849 162.60718735 120.08559448 163.35499969 119.85198975 164.12547302 C118.71856575 167.8264933 117.46234751 171.41793136 116 175 C116.84110321 174.99777939 117.68220642 174.99555878 118.54879761 174.99327087 C190.45847313 174.81242337 190.45847313 174.81242337 221.5625 175.4375 C223.13508575 175.4669722 223.13508575 175.4669722 224.73944092 175.49703979 C227.64026988 175.55311438 230.5408141 175.61647438 233.44140625 175.68359375 C234.27838547 175.70031128 235.11536469 175.71702881 235.97770691 175.73425293 C239.22030874 175.81951826 241.90345849 175.9678195 245 177 C245.4453125 179.14453125 245.4453125 179.14453125 245 182 C242.90267381 184.265273 240.40367026 185.93352236 237.875 187.6875 C237.14796875 188.21150391 236.4209375 188.73550781 235.671875 189.27539062 C233.45860639 190.86593645 231.2309117 192.43433307 229 194 C227.79328259 194.85929096 226.58747927 195.71986778 225.3828125 196.58203125 C223.69029952 197.79277115 221.99697221 199.00214557 220.29907227 200.20532227 C215.04507723 203.93480352 209.89765177 207.80026009 204.75219727 211.67749023 C200.13733017 215.15335455 195.48921635 218.57782561 190.80859375 221.96484375 C187.53061005 224.34012818 184.26419951 226.73082532 181 229.125 C180.06945801 229.80719604 180.06945801 229.80719604 179.12011719 230.50317383 C175.46430491 233.18535755 171.81404887 235.87491294 168.16796875 238.5703125 C151.79801113 250.66768391 151.79801113 250.66768391 144 256 C145.52873643 260.13993219 148.5027778 262.22369937 151.9375 264.75 C152.51798096 265.18610596 153.09846191 265.62221191 153.6965332 266.0715332 C155.45774326 267.39021609 157.22738805 268.69669763 159 270 C159.97453125 270.72058594 160.9490625 271.44117188 161.953125 272.18359375 C166.1809688 275.28199928 170.44633619 278.32049649 174.75 281.3125 C184.26405366 287.94532605 193.55030574 294.89680732 202.8125 301.875 C208.49221273 306.15390231 214.22639955 310.34877447 220 314.5 C222.24498001 316.12152339 224.48927637 317.74398873 226.73339844 319.36669922 C228.27012041 320.47405273 229.80994294 321.57711376 231.35253906 322.67626953 C233.61887602 324.29312477 235.87281178 325.92601791 238.125 327.5625 C238.81851562 328.05105469 239.51203125 328.53960937 240.2265625 329.04296875 C242.1328125 330.44140625 242.1328125 330.44140625 245 333 C245 334.32 245 335.64 245 337 C239.53448795 338.53471791 234.53516971 339.30155955 228.84448242 339.31884766 C228.07048096 339.32889328 227.29647949 339.3389389 226.49902344 339.34928894 C223.95117828 339.38003143 221.40344037 339.39717853 218.85546875 339.4140625 C217.04502041 339.43284269 215.23458019 339.45242073 213.42414856 339.4727478 C208.64548886 339.52403407 203.86679899 339.56357092 199.0880127 339.60089111 C195.29340202 339.63243169 191.49890085 339.6721942 187.70437431 339.71246719 C164.13600645 339.96227575 140.56957693 340.0558436 117 340 C118.51112014 348.15670302 120.05938371 356.11905705 123.0234375 363.89453125 C126.24121044 372.72785609 129.21050844 381.6300581 132.1015625 390.57421875 C132.32497063 391.26467411 132.54837875 391.95512947 132.77855682 392.66650772 C133.9297584 396.22561616 135.07862369 399.78547049 136.22558594 403.34594727 C137.15997923 406.24637983 138.09650443 409.14610881 139.03515625 412.04516602 C142.04953035 421.35525818 145.03881331 430.6728432 148 440 C148.31400757 440.98164124 148.62801514 441.96328247 148.95153809 442.97467041 C149.71767222 445.381674 150.4683643 447.7926755 151.2109375 450.20703125 C151.5929834 451.43526611 151.9750293 452.66350098 152.36865234 453.92895508 C153.01063443 457.05172874 152.89364561 458.968523 152 462 C148.86585141 463.00901546 147.49280797 463.24104738 144.484375 461.76953125 C143.13085938 460.80080078 143.13085938 460.80080078 141.75 459.8125 C140.69554687 459.07 139.64109375 458.3275 138.5546875 457.5625 C137.98331055 457.15 137.41193359 456.7375 136.82324219 456.3125 C134.91753313 454.94063445 132.99621682 453.59334875 131.0703125 452.25 C121.40373685 445.49309214 111.84713231 438.582906 102.296875 431.66308594 C97.62001034 428.27673368 92.93604169 424.90020472 88.25366211 421.52148438 C84.36725456 418.71546317 80.49073507 415.89697033 76.625 413.0625 C71.3343652 409.21025654 65.98137129 405.44749075 60.625 401.6875 C59.32103271 400.77013062 59.32103271 400.77013062 57.99072266 399.83422852 C57.1610498 399.25342529 56.33137695 398.67262207 55.4765625 398.07421875 C54.364021 397.29437622 54.364021 397.29437622 53.22900391 396.4987793 C50.86714624 394.91066931 48.45192695 393.44435591 46 392 C41.64120959 403.35741163 37.6528842 414.83324063 33.8125 426.375 C33.57343933 427.09345093 33.33437866 427.81190186 33.08807373 428.55212402 C29.53459765 439.24769493 26.0294853 449.9590996 22.52920341 460.67216873 C21.84819193 462.75617323 21.16683464 464.84006436 20.48536682 466.92391968 C20.02889314 468.31988296 19.57242648 469.71584854 19.1159668 471.11181641 C18.88944585 471.80454084 18.6629249 472.49726528 18.42953968 473.21098137 C17.0639583 477.38837331 15.70177075 481.56685435 14.34203625 485.74615288 C13.69162362 487.74380517 13.03982053 489.74099752 12.38743591 491.73800659 C11.57895088 494.213216 10.77282077 496.68919621 9.96937561 499.16604614 C9.42645119 500.82505447 9.42645119 500.82505447 8.87255859 502.51757812 C8.55789642 503.48377075 8.24323425 504.44996338 7.91903687 505.44543457 C7.09265437 507.74245685 6.14640543 509.84816693 5 512 C3.35 512 1.7 512 0 512 C-3.90125585 503.80184206 -6.67842654 495.29693979 -9.5 486.6875 C-10.02815927 485.08772991 -10.55681495 483.48812362 -11.0859375 481.88867188 C-12.18290622 478.57142957 -13.2777534 475.25349846 -14.37109375 471.93505859 C-16.65050308 465.0221708 -18.95611801 458.11805357 -21.26135254 451.21374512 C-21.99915339 449.00253731 -22.73563609 446.79089488 -23.47167969 444.57910156 C-25.82242394 437.51668025 -28.18025021 430.45679975 -30.5579834 423.40341187 C-31.6861041 420.05575313 -32.81095668 416.70700044 -33.93554688 413.3581543 C-34.47492294 411.75506266 -35.01591716 410.15251447 -35.55859375 408.55053711 C-36.30873184 406.33581037 -37.05338218 404.11930852 -37.796875 401.90234375 C-38.0212323 401.24475571 -38.2455896 400.58716766 -38.47674561 399.90965271 C-39.40367521 397.12990368 -40 394.95520152 -40 392 C-45.46618736 394.58325302 -50.20728641 397.39690316 -55 401.0625 C-60.17141059 404.93845793 -65.3996539 408.68768396 -70.75 412.3125 C-77.64509746 417.00096243 -84.36459896 421.90400776 -91.06225586 426.86938477 C-97.43783262 431.59533222 -103.87084206 436.23190478 -110.34375 440.82324219 C-112.59631736 442.42368067 -114.84271398 444.03266668 -117.08886719 445.64208984 C-118.23143109 446.45936289 -119.37529921 447.2748159 -120.52050781 448.08837891 C-123.86324188 450.46308562 -127.18224271 452.86594357 -130.484375 455.296875 C-132.01031725 456.40638675 -133.53635748 457.51576375 -135.0625 458.625 C-135.77704346 459.15851074 -136.49158691 459.69202148 -137.2277832 460.24169922 C-142.33125544 463.92501691 -142.33125544 463.92501691 -145.99609375 464.3359375 C-146.65738281 464.22507812 -147.31867188 464.11421875 -148 464 C-149.20712498 460.5068805 -148.78072553 458.36417209 -147.71679688 454.86328125 C-147.40697876 453.82864746 -147.09716064 452.79401367 -146.7779541 451.72802734 C-146.42841675 450.60090332 -146.07887939 449.4737793 -145.71875 448.3125 C-145.35793335 447.12350098 -144.9971167 445.93450195 -144.62536621 444.70947266 C-139.84470867 429.04969304 -134.82295664 413.46432554 -129.81781006 397.87524414 C-128.45694552 393.6358105 -127.09866942 389.39556187 -125.74333191 385.15435791 C-125.13223005 383.24521548 -124.51770663 381.33716924 -123.9029541 379.42919922 C-119.72094529 366.35085493 -115.87323433 353.17246025 -112 340 C-112.62837831 339.99668985 -113.25675663 339.99337971 -113.90417671 339.98996925 C-129.20311786 339.90870326 -144.50195222 339.81659905 -159.80075264 339.71247292 C-167.19917871 339.66237863 -174.59759387 339.61593539 -181.99609375 339.578125 C-188.44559426 339.54515521 -194.89500937 339.50529654 -201.34441555 339.45720994 C-204.75844687 339.43199442 -208.17242191 339.41019866 -211.58652115 339.39665604 C-215.40041613 339.37979497 -219.21403743 339.35075924 -223.02783203 339.31884766 C-224.15640121 339.31668747 -225.2849704 339.31452728 -226.44773865 339.31230164 C-231.6775759 339.25633555 -236.1179085 339.12493553 -241 337 C-240.7141134 333.92497583 -240.00588219 333.00540445 -237.69140625 330.87890625 C-236.65886719 330.11449219 -235.62632812 329.35007812 -234.5625 328.5625 C-233.99120361 328.13565918 -233.41990723 327.70881836 -232.83129883 327.26904297 C-230.89746524 325.83195277 -228.95083719 324.4139138 -227 323 C-226.30036133 322.49227051 -225.60072266 321.98454102 -224.87988281 321.46142578 C-221.88285763 319.29035769 -218.88256864 317.1239634 -215.8762207 314.96582031 C-210.1128351 310.82526519 -204.42790869 306.59015797 -198.76513672 302.31347656 C-193.92668887 298.66924506 -189.01609276 295.14018928 -184.07055664 291.64331055 C-179.65964347 288.50912526 -175.37969869 285.22589214 -171.11352539 281.89672852 C-166.58940448 278.39420532 -161.93654223 275.09338614 -157.25 271.8125 C-150.29575375 266.94167841 -150.29575375 266.94167841 -143.4375 261.9375 C-142.75558594 261.43089844 -142.07367188 260.92429687 -141.37109375 260.40234375 C-139.6504525 258.9693591 -139.6504525 258.9693591 -140 256 C-142.22703468 254.09242961 -144.43361389 252.38817416 -146.8125 250.6875 C-147.52301514 250.16768555 -148.23353027 249.64787109 -148.96557617 249.11230469 C-150.50030314 247.99015304 -152.03794445 246.87197889 -153.578125 245.75732422 C-156.85493806 243.37965281 -160.1075813 240.96986868 -163.36206055 238.56176758 C-169.89564084 233.73107122 -176.45376196 228.93477142 -183.03125 224.1640625 C-189.52981054 219.4269539 -195.99375622 214.64251935 -202.46533203 209.86865234 C-204.98487139 208.01115338 -207.50585899 206.15563834 -210.02734375 204.30078125 C-211.6641136 203.09642361 -213.30083314 201.89199759 -214.9375 200.6875 C-215.72922607 200.10484375 -216.52095215 199.5221875 -217.33666992 198.921875 C-222.73911601 194.94130421 -228.11231459 190.92506692 -233.45703125 186.8671875 C-236.06961984 184.88801199 -236.06961984 184.88801199 -239.32421875 183.0078125 C-240.20722656 182.34523437 -241.09023437 181.68265625 -242 181 C-242 179.68 -242 178.36 -242 177 C-219.63372088 169.54457363 -187.1345987 174.88547476 -163.78985596 174.93133545 C-157.93607956 174.94171285 -152.08229864 174.94616343 -146.22851562 174.95117188 C-134.81899878 174.96177755 -123.40950167 174.97876007 -112 175 C-112.26577347 174.13842285 -112.53154694 173.2768457 -112.80537415 172.38916016 C-114.55114756 166.72379844 -116.29479145 161.05859587 -117.98046875 155.375 C-124.02597168 135.13866433 -130.4353901 115.02669031 -136.93432617 94.93164062 C-140.18396389 84.87443626 -143.41715949 74.81200155 -146.515625 64.70703125 C-146.8973587 63.48713753 -146.8973587 63.48713753 -147.2868042 62.24259949 C-148.45268795 58.39017116 -149.32356244 55.07556398 -149 51 C-146.97265625 50.1953125 -146.97265625 50.1953125 -144 50 C-141.24358403 51.28857162 -138.87921441 53.07221982 -136.4375 54.875 C-135.73004639 55.37950684 -135.02259277 55.88401367 -134.29370117 56.40380859 C-129.10486304 60.12410763 -124.00154658 63.96179727 -118.91796875 67.82421875 C-114.80809799 70.88874086 -110.58521763 73.77821182 -106.359375 76.6796875 C-102.83743209 79.10283389 -99.35241151 81.57599186 -95.875 84.0625 C-95.28243408 84.48611816 -94.68986816 84.90973633 -94.0793457 85.34619141 C-90.63916577 87.81115346 -87.22148632 90.3044977 -83.8125 92.8125 C-77.88922645 97.14444633 -71.81182338 101.24913597 -65.72387695 105.3449707 C-61.26453718 108.36551721 -57.10006732 111.51058101 -53 115 C-51.26739384 116.29444709 -49.51848003 117.56751176 -47.75 118.8125 C-46.89921875 119.41707031 -46.0484375 120.02164063 -45.171875 120.64453125 C-43.14391031 122.17648341 -43.14391031 122.17648341 -41 122 C-40.69932617 121.0927417 -40.39865234 120.1854834 -40.08886719 119.25073242 C-38.64476204 114.89559525 -37.19792223 110.5413695 -35.75 106.1875 C-35.4805658 105.37725372 -35.21113159 104.56700745 -34.93353271 103.73220825 C-31.06579434 92.10976128 -27.12597306 80.51466186 -23.125 68.9375 C-17.76453178 53.42583191 -12.66731382 37.83241705 -7.63134766 22.21264648 C-7.34486862 21.32602325 -7.05838959 20.43940002 -6.76322937 19.52590942 C-6.22976826 17.87410401 -5.69790709 16.22178057 -5.16804504 14.56881714 C-3.58106301 9.65509166 -1.84578354 4.82272128 0 0 Z " fill="#F8A612" transform="translate(242,0)"></path>
<path d="M0 0 C0.99 0 1.98 0 3 0 C3 0.66 3 1.32 3 2 C3.7425 2.268125 4.485 2.53625 5.25 2.8125 C7.86636554 3.94229421 9.80187111 5.20893202 12 7 C11.57871634 11.91497599 9.54935392 13.72518174 6 17 C4.0050064 18.55457451 1.98326659 20.07537511 -0.0625 21.5625 C-4.26803341 24.61886634 -4.26803341 24.61886634 -8.05859375 28.15234375 C-10.27125467 30.25815585 -12.17281538 30.89371037 -15 32 C-16.93679152 33.38182086 -18.82847249 34.82770809 -20.6875 36.3125 C-26.9829954 41.28267703 -33.45556712 45.97676024 -39.99487305 50.62036133 C-40.73133057 51.14654053 -41.46778809 51.67271973 -42.2265625 52.21484375 C-42.88221191 52.68011475 -43.53786133 53.14538574 -44.21337891 53.62475586 C-46.02709169 54.95602397 -46.02709169 54.95602397 -47.54443359 56.56860352 C-49 58 -49 58 -52.0625 59.6875 C-56.12371443 61.9296288 -59.54025339 64.78563237 -63.1171875 67.72265625 C-66.38732365 70.30597519 -69.7695907 72.68104738 -73.1875 75.0625 C-78.31085716 78.64905629 -82.76449106 82.36110925 -87 87 C-83.20123729 88.26625424 -79.57578074 88.23298547 -75.61328125 88.31640625 C-74.38776802 88.3475779 -74.38776802 88.3475779 -73.13749695 88.37937927 C-70.52924966 88.44473079 -67.92090225 88.50369273 -65.3125 88.5625 C-63.54360946 88.60569892 -61.77472903 88.64931365 -60.00585938 88.69335938 C-55.67067537 88.80039743 -51.33539071 88.90170544 -47 89 C-47 89.66 -47 90.32 -47 91 C-52.44432256 91.04958399 -57.88851249 91.08580666 -63.33300781 91.10986328 C-65.18361706 91.11989631 -67.03421055 91.13352586 -68.88476562 91.15087891 C-71.5508209 91.17524608 -74.21666584 91.18651023 -76.8828125 91.1953125 C-77.70492218 91.20563507 -78.52703186 91.21595764 -79.37405396 91.22659302 C-83.98755336 91.2274861 -87.65633804 90.76556724 -92 89 C-91.7141134 85.92497583 -91.00588219 85.00540445 -88.69140625 82.87890625 C-87.65886719 82.11449219 -86.62632813 81.35007812 -85.5625 80.5625 C-84.99120361 80.13565918 -84.41990723 79.70881836 -83.83129883 79.26904297 C-81.89746524 77.83195277 -79.95083719 76.4139138 -78 75 C-77.30036133 74.49227051 -76.60072266 73.98454102 -75.87988281 73.46142578 C-72.88285763 71.29035769 -69.88256864 69.1239634 -66.8762207 66.96582031 C-61.1128351 62.82526519 -55.42790869 58.59015797 -49.76513672 54.31347656 C-44.92668887 50.66924506 -40.01609276 47.14018928 -35.07055664 43.64331055 C-30.65964347 40.50912526 -26.37969869 37.22589214 -22.11352539 33.89672852 C-17.58940448 30.39420532 -12.93654223 27.09338614 -8.25 23.8125 C-1.29575375 18.94167841 -1.29575375 18.94167841 5.5625 13.9375 C6.24441406 13.43089844 6.92632812 12.92429687 7.62890625 12.40234375 C9.3495475 10.9693591 9.3495475 10.9693591 9 8 C7.00445639 6.12075879 7.00445639 6.12075879 4.5 4.375 C2.98665528 3.26801636 1.48288256 2.14746865 0 1 C0 0.67 0 0.34 0 0 Z " fill="#DCA238" transform="translate(93,248)"></path>
<path d="M0 0 C7.26 0 14.52 0 22 0 C21.67 0.66 21.34 1.32 21 2 C15.06 2 9.12 2 3 2 C4.38852585 10.16779913 6.1079682 17.73145867 8.95703125 25.50390625 C13.67353385 38.68778662 17.9326686 52.01986433 22.22558594 65.34594727 C23.15997923 68.24637983 24.09650443 71.14610881 25.03515625 74.04516602 C28.04953035 83.35525818 31.03881331 92.6728432 34 102 C34.31400757 102.98164124 34.62801514 103.96328247 34.95153809 104.97467041 C35.71767222 107.381674 36.4683643 109.7926755 37.2109375 112.20703125 C37.5929834 113.43526611 37.9750293 114.66350098 38.36865234 115.92895508 C39.01063443 119.05172874 38.89364561 120.968523 38 124 C34.6868604 125.04127245 33.39801692 125.18574123 30.1875 123.6875 C29.465625 123.130625 28.74375 122.57375 28 122 C28 121.34 28 120.68 28 120 C30.64 120.33 33.28 120.66 36 121 C35.67 120.67 35.34 120.34 35 120 C34.53203931 117.52308705 34.10163053 115.04840324 33.6875 112.5625 C32.52727491 105.96175007 30.74856889 100.12872383 28 94 C26.5952171 90.20708617 26 88.08443865 26 84 C25.34 84 24.68 84 24 84 C23.80664062 83.18015625 23.61328125 82.3603125 23.4140625 81.515625 C23.15367187 80.43796875 22.89328125 79.3603125 22.625 78.25 C22.36976563 77.18265625 22.11453125 76.1153125 21.8515625 75.015625 C21.11942666 72.42292376 20.23304568 70.37007551 19 68 C18.53544626 66.10860262 18.07323087 64.21656403 17.62890625 62.3203125 C16.93007402 59.74201224 16.01867869 57.30656305 15.0625 54.8125 C12.760468 48.673748 11.34454162 42.40694452 10 36 C9.34 36 8.68 36 8 36 C7.86424561 35.44127197 7.72849121 34.88254395 7.58862305 34.30688477 C6.95880796 31.72445634 6.3231848 29.14348956 5.6875 26.5625 C5.47416016 25.68400391 5.26082031 24.80550781 5.04101562 23.90039062 C3.80577093 18.9041024 2.41553066 14.08551321 0.56176758 9.28100586 C0 7 0 7 0 0 Z " fill="#DC9F33" transform="translate(356,338)"></path>
<path d="M0 0 C5.2558853 3.34095035 10.27584611 6.92273723 15.1875 10.75 C19.6583301 14.23240353 24.18552385 17.60294959 28.8125 20.875 C30.56846949 22.12501218 32.32332238 23.37657228 34.07763672 24.62890625 C35.44239636 25.60229845 36.80877659 26.57342024 38.17626953 27.54296875 C40.41909054 29.14035625 42.6479872 30.75566936 44.875 32.375 C45.58374268 32.87499512 46.29248535 33.37499023 47.02270508 33.89013672 C47.67263428 34.36725098 48.32256348 34.84436523 48.9921875 35.3359375 C49.57339355 35.75407715 50.15459961 36.1722168 50.75341797 36.60302734 C52 38 52 38 52 42 C45.18991979 44.07606876 38.93417936 44.26208412 31.84375 44.1953125 C30.70087524 44.1924826 29.55800049 44.18965271 28.38049316 44.18673706 C24.75355268 44.17560025 21.12686504 44.15050741 17.5 44.125 C15.03125358 44.11496181 12.56250327 44.10583743 10.09375 44.09765625 C4.06241468 44.07568219 -1.96877459 44.04226957 -8 44 C-8 43.34 -8 42.68 -8 42 C20.215 41.505 20.215 41.505 49 41 C47.86786483 37.60359448 47.1555098 37.10320628 44.34375 35.06640625 C43.57667725 34.5058252 42.80960449 33.94524414 42.01928711 33.36767578 C41.18792236 32.77196777 40.35655762 32.17625977 39.5 31.5625 C38.64865479 30.94358887 37.79730957 30.32467773 36.92016602 29.68701172 C30.59952691 25.10626132 24.21592391 20.61560895 17.81811523 16.14355469 C12.98202375 12.74587561 8.33799393 9.19768622 3.78515625 5.42578125 C2.04937679 3.93771101 2.04937679 3.93771101 0 3 C0 2.01 0 1.02 0 0 Z " fill="#DF9E30" transform="translate(435,295)"></path>
<path d="M0 0 C0 0.66 0 1.32 0 2 C-14.68154185 2.04669839 -29.36307388 2.08197823 -44.04467487 2.10362434 C-50.86143284 2.11394167 -57.67814468 2.12801068 -64.49487305 2.15087891 C-71.06951484 2.1729245 -77.6441212 2.18455858 -84.2188015 2.18975449 C-86.73109887 2.19345881 -89.24339352 2.20069211 -91.75567055 2.21146011 C-95.26596441 2.22591164 -98.77605828 2.22798059 -102.28637695 2.22705078 C-103.33222458 2.23424133 -104.3780722 2.24143188 -105.45561218 2.24884033 C-106.41053558 2.246091 -107.36545898 2.24334167 -108.34931946 2.24050903 C-109.17985494 2.24235262 -110.01039042 2.24419621 -110.86609364 2.24609566 C-113 2 -113 2 -116 0 C-77.27835701 -0.95527258 -38.72164299 -0.95527258 0 0 Z " fill="#DFA331" transform="translate(480,176)"></path>
<path d="M0 0 C-3.75895253 2.85680393 -7.52661221 5.68232495 -11.40234375 8.37890625 C-17.81283847 12.85142462 -23.69890429 17.19403803 -29 23 C-25.20123729 24.26625424 -21.57578074 24.23298547 -17.61328125 24.31640625 C-16.79627243 24.33718735 -15.97926361 24.35796844 -15.13749695 24.37937927 C-12.52924966 24.44473079 -9.92090225 24.50369273 -7.3125 24.5625 C-5.54360946 24.60569892 -3.77472903 24.64931365 -2.00585938 24.69335938 C2.32932463 24.80039743 6.66460929 24.90170544 11 25 C11 25.66 11 26.32 11 27 C5.55567744 27.04958399 0.11148751 27.08580666 -5.33300781 27.10986328 C-7.18361706 27.11989631 -9.03421055 27.13352586 -10.88476562 27.15087891 C-13.5508209 27.17524608 -16.21666584 27.18651023 -18.8828125 27.1953125 C-19.70492218 27.20563507 -20.52703186 27.21595764 -21.37405396 27.22659302 C-25.98755336 27.2274861 -29.65633804 26.76556724 -34 25 C-33.71819448 21.90013928 -32.98880877 20.98970407 -30.65625 18.84375 C-29.6146875 18.0703125 -28.573125 17.296875 -27.5 16.5 C-26.93555176 16.08000732 -26.37110352 15.66001465 -25.78955078 15.22729492 C-24.54779521 14.3091048 -23.30162341 13.3968657 -22.05175781 12.48974609 C-20.61930384 11.44966587 -19.1919514 10.40253912 -17.76855469 9.35009766 C-15.47960185 7.65832612 -13.17945298 5.98308031 -10.875 4.3125 C-10.14087891 3.77109375 -9.40675781 3.2296875 -8.65039062 2.671875 C-7.95880859 2.17816406 -7.26722656 1.68445313 -6.5546875 1.17578125 C-5.63405518 0.50929565 -5.63405518 0.50929565 -4.69482422 -0.1706543 C-3 -1 -3 -1 0 0 Z " fill="#ECA72B" transform="translate(35,312)"></path>
<path d="M0 0 C0.99 0.33 1.98 0.66 3 1 C3.04241723 3.33294775 3.04092937 5.66702567 3 8 C1.33834793 9.66165207 -0.6651603 9.11959725 -2.88401794 9.12442017 C-3.58172806 9.12082489 -4.27943817 9.11722961 -4.99829102 9.11352539 C-6.09578674 9.11374443 -6.09578674 9.11374443 -7.2154541 9.1139679 C-9.64496784 9.11326867 -12.07440583 9.10547585 -14.50390625 9.09765625 C-16.18399514 9.0957921 -17.86408457 9.09436819 -19.54417419 9.09336853 C-23.97473643 9.08954307 -28.4052661 9.07971256 -32.83581543 9.06866455 C-37.35342976 9.05845103 -41.87104934 9.05387104 -46.38867188 9.04882812 C-55.25912893 9.03809031 -64.12956176 9.02101356 -73 9 C-72.67 8.34 -72.34 7.68 -72 7 C-47.91 7 -23.82 7 1 7 C0.505 3.535 0.505 3.535 0 0 Z " fill="#DDA53F" transform="translate(129,168)"></path>
<path d="M0 0 C0.66 0.33 1.32 0.66 2 1 C-0.61514317 3.12038635 -3.19637616 5.13091744 -6 7 C-4.47126357 11.13993219 -1.4972222 13.22369937 1.9375 15.75 C2.51798096 16.18610596 3.09846191 16.62221191 3.6965332 17.0715332 C5.45774326 18.39021609 7.22738805 19.69669763 9 21 C9.97453125 21.72058594 10.9490625 22.44117188 11.953125 23.18359375 C16.2417363 26.32653317 20.57003093 29.4053081 24.9375 32.4375 C30.73946368 36.47364865 36.36742473 40.73201771 42 45 C41.505 45.99 41.505 45.99 41 47 C35.28707522 43.23278148 29.64918717 39.37571485 24.06640625 35.41796875 C22.06630267 33.97593408 22.06630267 33.97593408 20 33 C20 32.34 20 31.68 20 31 C19.2575 30.73316406 18.515 30.46632813 17.75 30.19140625 C15.05824102 29.02523226 13.24912377 27.7956628 11 25.9375 C8.26646873 23.73408019 5.51071647 21.63686183 2.59765625 19.6796875 C2.01306641 19.286604 1.42847656 18.89352051 0.82617188 18.48852539 C-0.87073393 17.35701996 -2.5739203 16.23495073 -4.27734375 15.11328125 C-6.8809493 13.0924052 -8.03013203 12.09259786 -9 9 C-9 7.68 -9 6.36 -9 5 C-7.54735962 4.1361871 -6.0876837 3.28419546 -4.625 2.4375 C-3.40683594 1.72400391 -3.40683594 1.72400391 -2.1640625 0.99609375 C-1.44992187 0.66738281 -0.73578125 0.33867187 0 0 Z " fill="#DA9D37" transform="translate(392,249)"></path>
<path d="M0 0 C0.66 0 1.32 0 2 0 C1.24461076 5.78469128 0.48136052 11.31611126 -1.875 16.6875 C-4.49365545 22.68981136 -5.75430436 28.97254245 -7.16796875 35.33984375 C-8 39 -8 39 -9 42 C-3.87509744 39.384251 -3.87509744 39.384251 0.0625 35.3125 C2 33 2 33 5.25 32.1875 C6.1575 32.125625 7.065 32.06375 8 32 C6.66775241 35.99674277 4.08300296 37.40107455 0.75 39.6875 C0.17636719 40.10322266 -0.39726563 40.51894531 -0.98828125 40.94726562 C-4.43679041 43.33922699 -6.77961802 44.54738037 -11 44 C-12.34943767 40.28863078 -11.62730869 37.87620051 -10.48828125 34.16015625 C-10.14216797 33.01353516 -9.79605469 31.86691406 -9.43945312 30.68554688 C-9.06755859 29.48994141 -8.69566406 28.29433594 -8.3125 27.0625 C-7.95994141 25.90169922 -7.60738281 24.74089844 -7.24414062 23.54492188 C-6.17319194 20.02664987 -5.08798067 16.51303871 -4 13 C-3.2431034 10.5404834 -2.48657396 8.08085376 -1.73046875 5.62109375 C-1.153714 3.74737485 -0.57691784 1.87366869 0 0 Z " fill="#E69D28" transform="translate(105,420)"></path>
<path d="M0 0 C0.66 0 1.32 0 2 0 C2.19335938 0.68707031 2.38671875 1.37414062 2.5859375 2.08203125 C2.97652344 3.43361328 2.97652344 3.43361328 3.375 4.8125 C3.63023437 5.70582031 3.88546875 6.59914063 4.1484375 7.51953125 C4.95266661 10.20467896 4.95266661 10.20467896 7 13 C7.125 15.6875 7.125 15.6875 7 18 C7.99 18 8.98 18 10 18 C10.08636719 18.70382812 10.17273438 19.40765625 10.26171875 20.1328125 C11.30908355 27.49319263 13.27866626 34.04466948 15.9765625 40.96875 C17 44 17 44 17 48 C16.34 48 15.68 48 15 48 C4.44213867 16.32641602 4.44213867 16.32641602 3.73397827 14.19021606 C3.2155508 12.64321089 2.68690525 11.09961202 2.15103149 9.55856323 C1.876008 8.76056305 1.6009845 7.96256287 1.31762695 7.14038086 C1.06551956 6.41886337 0.81341217 5.69734589 0.55366516 4.95396423 C0 3 0 3 0 0 Z " fill="#E7A328" transform="translate(210,416)"></path>
<path d="M0 0 C2.78395049 2.78395049 3.52696702 6.08925145 4.71484375 9.75390625 C4.97125137 10.52878891 5.227659 11.30367157 5.49183655 12.10203552 C6.31270484 14.58703721 7.12522365 17.07467819 7.9375 19.5625 C8.48056642 21.21177086 9.02418013 22.86086161 9.56835938 24.50976562 C10.81143213 28.27908529 12.05018355 32.04976935 13.27975464 35.82351685 C13.78991935 37.36516494 14.31279871 38.9026322 14.84451294 40.4369812 C15.2570784 41.63401169 15.2570784 41.63401169 15.67797852 42.85522461 C15.93072037 43.57737656 16.18346222 44.2995285 16.44386292 45.04356384 C17 47 17 47 17 50 C16.34 50 15.68 50 15 50 C12.5 42.5 10 35 7.5 27.5 C7.25378906 26.7678125 7.00757813 26.035625 6.75390625 25.28125 C6.22542351 23.68211052 5.71380607 22.07734494 5.21484375 20.46875 C4.95832031 19.6540625 4.70179688 18.839375 4.4375 18 C4.20933594 17.2575 3.98117187 16.515 3.74609375 15.75 C3.13743592 13.79897553 3.13743592 13.79897553 1 13 C0.5859375 10.05859375 0.5859375 10.05859375 0.375 6.4375 C0.30023438 5.23996094 0.22546875 4.04242188 0.1484375 2.80859375 C0.09945313 1.88175781 0.05046875 0.95492187 0 0 Z " fill="#DD9E32" transform="translate(268,68)"></path>
<path d="M0 0 C1.01449219 0.0928125 2.02898438 0.185625 3.07421875 0.28125 C4.18216797 0.38953125 4.18216797 0.38953125 5.3125 0.5 C5.3125 0.83 5.3125 1.16 5.3125 1.5 C-5.63793387 2.60438145 -16.50686311 2.61728479 -27.5 2.5625 C-29.2714831 2.55747152 -31.04296759 2.55291102 -32.81445312 2.54882812 C-37.10550387 2.5379372 -41.39648606 2.52074804 -45.6875 2.5 C-45.6875 3.16 -45.6875 3.82 -45.6875 4.5 C-46.3475 4.5 -47.0075 4.5 -47.6875 4.5 C-47.6875 3.51 -47.6875 2.52 -47.6875 1.5 C-44.5589669 0.45715563 -42.16143396 0.29883169 -38.875 0.18359375 C-37.71613281 0.14169922 -36.55726562 0.09980469 -35.36328125 0.05664062 C-34.15027344 0.01732422 -32.93726563 -0.02199219 -31.6875 -0.0625 C-29.91439453 -0.12727539 -29.91439453 -0.12727539 -28.10546875 -0.19335938 C-9.07630076 -0.85424007 -9.07630076 -0.85424007 0 0 Z " fill="#DB9C40" transform="translate(47.6875,175.5)"></path>
<path d="M0 0 C0.66 0 1.32 0 2 0 C-0.7950764 9.63075446 -4.00211462 19.11825135 -7.1875 28.625 C-7.75209343 30.31375518 -8.3165477 32.0025569 -8.88085938 33.69140625 C-10.25230217 37.79480915 -11.62562792 41.89757734 -13 46 C-13.66 46 -14.32 46 -15 46 C-13.90608248 37.68622687 -11.0721357 30.00812273 -7.90234375 22.29296875 C-6.70545988 19.25153657 -5.86894165 16.14991349 -5 13 C-4.32393178 10.87133539 -3.63551619 8.74656891 -2.9375 6.625 C-2.59589844 5.58601563 -2.25429688 4.54703125 -1.90234375 3.4765625 C-1 1 -1 1 0 0 Z " fill="#DB9D33" transform="translate(284,395)"></path>
<path d="M0 0 C0.66 0 1.32 0 2 0 C2.35586527 4.98211383 1.31075171 7.63524677 -1 12 C-1.50454012 13.40782968 -1.98188703 14.82558364 -2.4375 16.25 C-3.47284889 19.48546528 -4.63387332 22.6131483 -5.9375 25.75 C-8.01881224 30.84120995 -9.60776786 36.04138305 -11.16796875 41.3125 C-12 44 -12 44 -13 46 C-13.66 46 -14.32 46 -15 46 C-12.53404961 36.06895774 -9.163526 26.46937827 -5.8125 16.8125 C-5.24772306 15.17654405 -4.68326747 13.54047711 -4.11914062 11.90429688 C-2.74979253 7.9349097 -1.37611403 3.96704636 0 0 Z " fill="#DF9D2B" transform="translate(225,51)"></path>
<path d="M0 0 C0.99 0 1.98 0 3 0 C0.47428355 10.07053889 -2.87613422 19.85612574 -6.1875 29.6875 C-6.7522344 31.3716505 -7.3166897 33.05589462 -7.88085938 34.74023438 C-9.2506926 38.82790875 -10.62429074 42.91429965 -12 47 C-12.66 47 -13.32 47 -14 47 C-11.82865877 36.50518406 -9.08121905 26.21262276 -4.9453125 16.3125 C-2.78780055 11.03461953 -0.90998658 5.64191677 0 0 Z " fill="#DB9B32" transform="translate(267,442)"></path>
<path d="M0 0 C0.99 0.33 1.98 0.66 3 1 C1.54634731 2.17249353 0.08692581 3.33783816 -1.375 4.5 C-2.59316406 5.47453125 -2.59316406 5.47453125 -3.8359375 6.46875 C-6 8 -6 8 -8 8 C-8 8.66 -8 9.32 -8 10 C-9.02351563 10.55816406 -10.04703125 11.11632812 -11.1015625 11.69140625 C-14.80288402 13.80631419 -18.06165464 16.26874076 -21.375 18.9375 C-26.32862523 22.84784106 -31.31537845 26.20910053 -37 29 C-35.67351872 25.92462239 -34.44310023 24.29111991 -31.68359375 22.40625 C-31.00941406 21.93872314 -30.33523438 21.47119629 -29.640625 20.98950195 C-28.91359375 20.49796631 -28.1865625 20.00643066 -27.4375 19.5 C-25.90479261 18.44163113 -24.37224546 17.38303017 -22.83984375 16.32421875 C-22.04690918 15.78071777 -21.25397461 15.2372168 -20.43701172 14.67724609 C-16.43439041 11.92248669 -12.46820765 9.11649023 -8.5 6.3125 C-7.76450928 5.79558594 -7.02901855 5.27867188 -6.27124023 4.74609375 C-2.99314117 2.54821029 -2.99314117 2.54821029 0 0 Z " fill="#E5A029" transform="translate(372,63)"></path>
<path d="M0 0 C2.475 0.495 2.475 0.495 5 1 C8.3 10.9 11.6 20.8 15 31 C14.34 31.66 13.68 32.32 13 33 C12.74605469 32.35933594 12.49210938 31.71867187 12.23046875 31.05859375 C11.88628906 30.19363281 11.54210937 29.32867188 11.1875 28.4375 C10.82269531 27.51839844 10.45789063 26.59929688 10.08203125 25.65234375 C9.23571978 23.5778113 8.31850813 21.53217135 7.375 19.5 C5.90208186 15.75075381 5.17332814 12.19641257 4.52734375 8.234375 C4.07420886 5.73350799 4.07420886 5.73350799 2 3 C1.34 3 0.68 3 0 3 C0 2.01 0 1.02 0 0 Z " fill="#E09F2A" transform="translate(242,0)"></path>
<path d="M0 0 C2.31 0.33 4.62 0.66 7 1 C7.4765625 3.1171875 7.4765625 3.1171875 7 6 C4.73124962 8.40768569 2.07495907 10.22888164 -0.625 12.125 C-1.33785156 12.64964844 -2.05070312 13.17429688 -2.78515625 13.71484375 C-6.70285622 16.55427767 -10.58315029 18.97967442 -15 21 C-14.67 19.35 -14.34 17.7 -14 16 C-12.35 16 -10.7 16 -9 16 C-8.773125 15.401875 -8.54625 14.80375 -8.3125 14.1875 C-6.63493047 11.39155078 -4.83065906 10.57990273 -2 9 C-1.113125 8.278125 -0.22625 7.55625 0.6875 6.8125 C3 5 3 5 5 5 C5 4.34 5 3.68 5 3 C2.69 3 0.38 3 -2 3 C-1.34 2.67 -0.68 2.34 0 2 C0 1.34 0 0.68 0 0 Z " fill="#EFA51E" transform="translate(480,176)"></path>
<path d="M0 0 C0.66 0 1.32 0 2 0 C1.21496746 9.57739701 -1.05384533 18.24983095 -5 27 C-5.68836513 28.99263591 -6.36281399 30.99041337 -7 33 C-7.66 33 -8.32 33 -9 33 C-6.378868 21.8946776 -3.17352041 10.95719129 0 0 Z " fill="#DB9B30" transform="translate(130,339)"></path>
<path d="M0 0 C-1.51995513 4.34987159 -4.849813 6.3320659 -8.5 8.8125 C-9.76694979 9.69007138 -11.03387672 10.56767578 -12.30078125 11.4453125 C-12.92678223 11.87489258 -13.5527832 12.30447266 -14.19775391 12.74707031 C-15.83286784 13.88380896 -17.43976067 15.06087628 -19.04296875 16.2421875 C-19.91566406 16.88414062 -20.78835937 17.52609375 -21.6875 18.1875 C-22.45449219 18.75855469 -23.22148438 19.32960938 -24.01171875 19.91796875 C-24.99591797 20.45357422 -24.99591797 20.45357422 -26 21 C-26.99 20.67 -27.98 20.34 -29 20 C-23.67384829 15.99035003 -18.33982952 11.99141302 -13 8 C-12.40429199 7.55333984 -11.80858398 7.10667969 -11.19482422 6.64648438 C-9.67533468 5.5092478 -8.15038675 4.37931429 -6.625 3.25 C-5.77164063 2.61578125 -4.91828125 1.9815625 -4.0390625 1.328125 C-2 0 -2 0 0 0 Z " fill="#D39E44" transform="translate(62,290)"></path>
<path d="M0 0 C0 0.99 0 1.98 0 3 C-1.63305664 4.54638672 -1.63305664 4.54638672 -3.91015625 6.1796875 C-4.73580078 6.77910156 -5.56144531 7.37851563 -6.41210938 7.99609375 C-7.28673828 8.61613281 -8.16136719 9.23617187 -9.0625 9.875 C-9.91005859 10.48730469 -10.75761719 11.09960938 -11.63085938 11.73046875 C-14.08022332 13.49703703 -16.53854418 15.25033341 -19 17 C-20.37389961 17.98148856 -21.74762304 18.96322384 -23.12109375 19.9453125 C-24.54615234 20.96238281 -24.54615234 20.96238281 -26 22 C-26.33 21.01 -26.66 20.02 -27 19 C-26.40574219 18.5875 -25.81148438 18.175 -25.19921875 17.75 C-20.51333152 14.48518277 -15.8603585 11.18331081 -11.25 7.8125 C-7.55478202 5.11315637 -3.83891344 2.49010602 0 0 Z " fill="#DFA52C" transform="translate(423,226)"></path>
<path d="M0 0 C0.66 0 1.32 0 2 0 C1.02794898 3.6746474 0.02022112 7.33844369 -1 11 C-1.32484375 12.18464844 -1.6496875 13.36929688 -1.984375 14.58984375 C-2.31953125 15.75644531 -2.6546875 16.92304688 -3 18.125 C-3.309375 19.22070312 -3.61875 20.31640625 -3.9375 21.4453125 C-4.288125 22.28835937 -4.63875 23.13140625 -5 24 C-5.99 24.33 -6.98 24.66 -8 25 C-7.690625 23.88625 -7.38125 22.7725 -7.0625 21.625 C-5.84199336 16.79490988 -5.38600363 11.95709931 -5 7 C-4.01 7 -3.02 7 -2 7 C-1.34 4.69 -0.68 2.38 0 0 Z " fill="#EBA122" transform="translate(367,139)"></path>
<path d="M0 0 C-1.33224759 3.99674277 -3.91699704 5.40107455 -7.25 7.6875 C-7.82363281 8.10322266 -8.39726563 8.51894531 -8.98828125 8.94726562 C-12.43679041 11.33922699 -14.77961802 12.54738037 -19 12 C-19.625 10.125 -19.625 10.125 -20 8 C-19.34 7.34 -18.68 6.68 -18 6 C-17.67 7.32 -17.34 8.64 -17 10 C-12.09765211 7.45455013 -9.43400079 5.38131135 -6 1 C-3.81288231 0.16374912 -2.32414606 0 0 0 Z " fill="#EAA728" transform="translate(113,452)"></path>
<path d="M0 0 C1.45922693 0.11409593 2.91740598 0.24165544 4.375 0.375 C5.59316406 0.47941406 5.59316406 0.47941406 6.8359375 0.5859375 C9 1 9 1 11 3 C13.43176397 3.24501495 15.75864884 3.37324921 18.1953125 3.4140625 C19.25647781 3.44311172 19.25647781 3.44311172 20.33908081 3.4727478 C22.60093085 3.53257652 24.8628317 3.57894101 27.125 3.625 C28.6575744 3.66317686 30.19012728 3.70222842 31.72265625 3.7421875 C35.48159624 3.83828039 39.24063668 3.92229849 43 4 C43 4.33 43 4.66 43 5 C38.39184965 5.02478935 33.78373847 5.0429023 29.17553711 5.05493164 C27.60912398 5.05994856 26.0427155 5.06676362 24.47631836 5.07543945 C22.21987761 5.08762094 19.96349898 5.09325481 17.70703125 5.09765625 C16.66298882 5.10539818 16.66298882 5.10539818 15.59785461 5.11329651 C11.93529848 5.11371546 8.56131142 4.87148095 5 4 C5.33 4.99 5.66 5.98 6 7 C5.34 7 4.68 7 4 7 C4 5.68 4 4.36 4 3 C2.68 2.67 1.36 2.34 0 2 C0 1.34 0 0.68 0 0 Z " fill="#F1A51F" transform="translate(356,174)"></path>
<path d="M0 0 C0.99 0.33 1.98 0.66 3 1 C-2.03103901 4.82358965 -7.12046482 8.56010005 -12.25 12.25 C-12.85215332 12.68618652 -13.45430664 13.12237305 -14.07470703 13.57177734 C-16.95373825 15.63464209 -19.75824376 17.55565316 -23 19 C-21.55145857 15.46700746 -19.79153021 13.8055683 -16.71875 11.58203125 C-15.45611328 10.66067383 -15.45611328 10.66067383 -14.16796875 9.72070312 C-13.28753906 9.09099609 -12.40710937 8.46128906 -11.5 7.8125 C-10.61957031 7.17119141 -9.73914062 6.52988281 -8.83203125 5.86914062 C-2.37699298 1.18849649 -2.37699298 1.18849649 0 0 Z " fill="#DDA332" transform="translate(32,311)"></path>
<path d="M0 0 C7.26 0 14.52 0 22 0 C21.67 0.66 21.34 1.32 21 2 C15.06 2 9.12 2 3 2 C3 2.66 3 3.32 3 4 C2.34 4 1.68 4 1 4 C0.67 4.99 0.34 5.98 0 7 C0 4.69 0 2.38 0 0 Z " fill="#ECAD2F" transform="translate(356,338)"></path>
<path d="M0 0 C0.66 0 1.32 0 2 0 C1.3440206 5.63587931 -0.56032841 10.60988342 -2.5625 15.875 C-2.89185547 16.75414063 -3.22121094 17.63328125 -3.56054688 18.5390625 C-4.36886614 20.69458053 -5.18212294 22.84809441 -6 25 C-6.66 25 -7.32 25 -8 25 C-5.56541729 16.58782396 -2.79856214 8.29613284 0 0 Z " fill="#E5A326" transform="translate(235,21)"></path>
<path d="M0 0 C0.66 0 1.32 0 2 0 C0.28570895 8.17584961 -1.66789892 16.31053596 -5 24 C-5.66 24 -6.32 24 -7 24 C-5.08927776 15.83600499 -2.76477561 7.9153982 0 0 Z " fill="#E19C2C" transform="translate(115,389)"></path>
<path d="M0 0 C16.28318584 8.84955752 16.28318584 8.84955752 18 14 C14.42705968 12.67997942 11.36046508 11.10478612 8.1875 9 C7.39730469 8.484375 6.60710937 7.96875 5.79296875 7.4375 C5.20128906 6.963125 4.60960937 6.48875 4 6 C4 5.34 4 4.68 4 4 C2.68 3.34 1.36 2.68 0 2 C0 1.34 0 0.68 0 0 Z " fill="#E4A526" transform="translate(143,83)"></path>
<path d="M0 0 C1.35304209 4.05912626 0.15216503 5.77149591 -1.4375 9.6875 C-1.91058594 10.86699219 -2.38367188 12.04648437 -2.87109375 13.26171875 C-3.24363281 14.16535156 -3.61617187 15.06898438 -4 16 C-5.65 16 -7.3 16 -9 16 C-9.66 14.35 -10.32 12.7 -11 11 C-10.01 11.33 -9.02 11.66 -8 12 C-8 12.66 -8 13.32 -8 14 C-7.01 14 -6.02 14 -5 14 C-4.80664062 13.15695312 -4.61328125 12.31390625 -4.4140625 11.4453125 C-4.02347656 9.80175781 -4.02347656 9.80175781 -3.625 8.125 C-3.36976563 7.03445313 -3.11453125 5.94390625 -2.8515625 4.8203125 C-2 2 -2 2 0 0 Z " fill="#DBA034" transform="translate(251,496)"></path>
<path d="M0 0 C0.99 0.33 1.98 0.66 3 1 C3.04241723 3.33294775 3.04092937 5.66702567 3 8 C2 9 2 9 -1.16015625 9.09765625 C-3.09181641 9.08025391 -3.09181641 9.08025391 -5.0625 9.0625 C-6.35285156 9.05347656 -7.64320312 9.04445312 -8.97265625 9.03515625 C-9.97167969 9.02355469 -10.97070312 9.01195312 -12 9 C-12 8.34 -12 7.68 -12 7 C-7.71 7 -3.42 7 1 7 C0.67 4.69 0.34 2.38 0 0 Z " fill="#E4A22A" transform="translate(129,168)"></path>
<path d="M0 0 C2 3 2 3 1.625 5.1875 C1.41875 5.785625 1.2125 6.38375 1 7 C0.67 5.68 0.34 4.36 0 3 C-4.29561003 5.05396887 -8.21426479 7.087896 -12 10 C-12.66 10 -13.32 10 -14 10 C-12.69467452 6.08402356 -11.02734726 5.46169654 -7.5625 3.3125 C-6.07943359 2.37857422 -6.07943359 2.37857422 -4.56640625 1.42578125 C-2 0 -2 0 0 0 Z " fill="#E8A432" transform="translate(202,389)"></path>
<path d="M0 0 C0.66 0.33 1.32 0.66 2 1 C-0.61514317 3.12038635 -3.19637616 5.13091744 -6 7 C-4.79618552 9.49361571 -3.54571278 11.68143083 -2 14 C-5 14 -5 14 -6.625 12.875 C-8.47382935 10.35386907 -8.65927797 8.06649825 -9 5 C-7.54735962 4.1361871 -6.0876837 3.28419546 -4.625 2.4375 C-3.40683594 1.72400391 -3.40683594 1.72400391 -2.1640625 0.99609375 C-1.44992187 0.66738281 -0.73578125 0.33867187 0 0 Z " fill="#DE9F34" transform="translate(392,249)"></path>
<path d="M0 0 C0.66 0 1.32 0 2 0 C2.84080019 2.41429769 3.67281402 4.83103993 4.5 7.25 C4.73847656 7.93191406 4.97695312 8.61382812 5.22265625 9.31640625 C6.39421287 12.76413003 7 15.31702904 7 19 C6.34 19 5.68 19 5 19 C4.16142312 16.39741676 3.32896656 13.79314353 2.5 11.1875 C2.14228516 10.08051758 2.14228516 10.08051758 1.77734375 8.95117188 C0.80059864 5.86744804 0 3.25504191 0 0 Z " fill="#EFA421" transform="translate(117,129)"></path>
<path d="M0 0 C0.66 0 1.32 0 2 0 C5.08467498 5.39459439 6.55643705 9.79011871 7 16 C6.34 16 5.68 16 5 16 C4.16280617 13.70967689 3.3301071 11.41789043 2.5 9.125 C2.14228516 8.14853516 2.14228516 8.14853516 1.77734375 7.15234375 C0 2.2265625 0 2.2265625 0 0 Z " fill="#E1A12F" transform="translate(204,399)"></path>
<path d="M0 0 C0.66 0.268125 1.32 0.53625 2 0.8125 C2 2.7925 2 4.7725 2 6.8125 C1.34 6.4825 0.68 6.1525 0 5.8125 C0 4.4925 0 3.1725 0 1.8125 C-0.61488281 2.16183594 -1.22976563 2.51117188 -1.86328125 2.87109375 C-2.67152344 3.32613281 -3.47976563 3.78117187 -4.3125 4.25 C-5.51326172 4.92869141 -5.51326172 4.92869141 -6.73828125 5.62109375 C-9 6.8125 -9 6.8125 -12 7.8125 C-10.65740204 3.78470612 -8.61006649 2.88196452 -5.078125 0.75390625 C-3 -0.1875 -3 -0.1875 0 0 Z " fill="#DA9E31" transform="translate(393,51.1875)"></path>
<path d="M0 0 C0.99 0.33 1.98 0.66 3 1 C-2.61 4.96 -8.22 8.92 -14 13 C-14 12.01 -14 11.02 -14 10 C-11.76521255 8.09880698 -9.58359996 6.42136825 -7.1875 4.75 C-6.54490234 4.27820313 -5.90230469 3.80640625 -5.24023438 3.3203125 C-3.55318524 2.12451809 -1.77990709 1.05261094 0 0 Z " fill="#E6A028" transform="translate(171,409)"></path>
<path d="M0 0 C0.99 0 1.98 0 3 0 C3 0.66 3 1.32 3 2 C3.7425 2.268125 4.485 2.53625 5.25 2.8125 C7.86636554 3.94229421 9.80187111 5.20893202 12 7 C11.5206753 11.31392226 10.2542015 13.16569547 7 16 C7.66666667 13.33333333 8.33333333 10.66666667 9 8 C8.3503125 7.50628906 7.700625 7.01257813 7.03125 6.50390625 C6.1959375 5.86324219 5.360625 5.22257813 4.5 4.5625 C3.6646875 3.92441406 2.829375 3.28632813 1.96875 2.62890625 C1.3190625 2.09136719 0.669375 1.55382812 0 1 C0 0.67 0 0.34 0 0 Z " fill="#E4A330" transform="translate(93,248)"></path>
<path d="M0 0 C0.66 0 1.32 0 2 0 C1.53444296 6.40140935 -0.14711836 11.26769829 -3 17 C-4.56393356 13.02623171 -3.36145292 10.18622097 -2.0625 6.25 C-1.68222656 5.07953125 -1.30195313 3.9090625 -0.91015625 2.703125 C-0.60980469 1.81109375 -0.30945313 0.9190625 0 0 Z " fill="#E9A024" transform="translate(377,105)"></path>
<path d="M0 0 C0.99 0.33 1.98 0.66 3 1 C4.16796875 3.8359375 4.16796875 3.8359375 5.1875 7.375 C5.70376953 9.11910156 5.70376953 9.11910156 6.23046875 10.8984375 C7 14 7 14 7 17 C6.34 17 5.68 17 5 17 C4.16301614 14.54285453 3.33027576 12.08441143 2.5 9.625 C2.26152344 8.92632812 2.02304688 8.22765625 1.77734375 7.5078125 C0 2.2265625 0 2.2265625 0 0 Z " fill="#E5A22D" transform="translate(226,465)"></path>
<path d="M0 0 C0.66 0 1.32 0 2 0 C2.35316012 4.94424166 1.30254044 7.67122397 -1 12 C-1.69907414 14.73572585 -1.69907414 14.73572585 -2 17 C-4 14 -4 14 -3.57421875 11.15234375 C-3.28160156 10.09144531 -2.98898438 9.03054687 -2.6875 7.9375 C-2.40261719 6.87402344 -2.11773437 5.81054688 -1.82421875 4.71484375 C-1 2 -1 2 0 0 Z " fill="#E7A120" transform="translate(225,51)"></path>
<path d="M0 0 C0 0.99 0 1.98 0 3 C-1.92611601 4.70523115 -3.79524684 6.19550317 -5.875 7.6875 C-6.43058594 8.10322266 -6.98617187 8.51894531 -7.55859375 8.94726562 C-11.71913485 12 -11.71913485 12 -14 12 C-12.47547071 7.7158797 -9.61196542 6.13529708 -5.875 3.75 C-4.77929688 3.04359375 -3.68359375 2.3371875 -2.5546875 1.609375 C-1.71164063 1.07828125 -0.86859375 0.5471875 0 0 Z " fill="#D39D43" transform="translate(99,262)"></path>
<path d="M0 0 C1.13732426 3.40401948 0.83989957 5.77456664 0.0625 9.25 C-0.13214844 10.14203125 -0.32679687 11.0340625 -0.52734375 11.953125 C-0.68332031 12.62859375 -0.83929688 13.3040625 -1 14 C-1.99 13.67 -2.98 13.34 -4 13 C-3.52511102 11.01980257 -3.04497141 9.04086365 -2.5625 7.0625 C-2.29566406 5.96035156 -2.02882813 4.85820312 -1.75390625 3.72265625 C-1 1 -1 1 0 0 Z " fill="#D9A037" transform="translate(98,445)"></path>
<path d="M0 0 C3.83663072 1.34929464 6.65172569 3.07751025 9.8125 5.625 C10.99779297 6.57246094 10.99779297 6.57246094 12.20703125 7.5390625 C12.79871094 8.02117187 13.39039063 8.50328125 14 9 C13.67 9.66 13.34 10.32 13 11 C11.01443758 9.73918284 9.03671263 8.46601576 7.0625 7.1875 C5.96035156 6.47980469 4.85820312 5.77210938 3.72265625 5.04296875 C1 3 1 3 0 0 Z " fill="#E7A029" transform="translate(299,397)"></path>
<path d="M0 0 C4.10110762 1.40398279 6.98089159 3.37087038 10.3125 6.125 C11.19550781 6.84945312 12.07851562 7.57390625 12.98828125 8.3203125 C13.65214844 8.87460938 14.31601563 9.42890625 15 10 C14.01 10.33 13.02 10.66 12 11 C9.84375 9.63671875 9.84375 9.63671875 7.5 7.6875 C5.03427705 5.66149764 2.65960533 3.77307022 0 2 C0 1.34 0 0.68 0 0 Z " fill="#E2A22A" transform="translate(105,56)"></path>
<path d="M0 0 C0.66 0 1.32 0 2 0 C2.70088156 1.74468372 3.38524009 3.49601161 4.0625 5.25 C4.44535156 6.22453125 4.82820313 7.1990625 5.22265625 8.203125 C6.01113787 11.04007395 6.02437812 12.29409552 5 15 C2.18467181 9.95859836 0.4811491 5.77378925 0 0 Z " fill="#E5A32F" transform="translate(262,52)"></path>
<path d="M0 0 C0.99 0.66 1.98 1.32 3 2 C2.54625 3.03125 2.0925 4.0625 1.625 5.125 C0.23292639 8.36437508 -0.93380878 11.63739693 -2 15 C-2.66 15 -3.32 15 -4 15 C-3.52229477 13.06213915 -3.04278429 11.12472326 -2.5625 9.1875 C-2.29566406 8.10855469 -2.02882813 7.02960938 -1.75390625 5.91796875 C-1.23922588 3.9259157 -0.65062825 1.95188476 0 0 Z " fill="#E3A12B" transform="translate(125,357)"></path>
<path d="M0 0 C0.66 0 1.32 0 2 0 C2 1.98 2 3.96 2 6 C1.34 6 0.68 6 0 6 C-0.12375 6.969375 -0.2475 7.93875 -0.375 8.9375 C-0.58125 9.948125 -0.7875 10.95875 -1 12 C-1.99 12.495 -1.99 12.495 -3 13 C-2.52060632 8.28596212 -2.03165952 4.33420699 0 0 Z " fill="#E2A128" transform="translate(207,105)"></path>
<path d="M0 0 C3.89006773 1.38780795 6.96558708 3.2152227 10.3125 5.625 C11.19550781 6.25664063 12.07851562 6.88828125 12.98828125 7.5390625 C13.65214844 8.02117187 14.31601563 8.50328125 15 9 C14.34 9.66 13.68 10.32 13 11 C12.56429687 10.60167969 12.12859375 10.20335938 11.6796875 9.79296875 C7.99005314 6.51063169 4.56922802 4.00600254 0 2 C0 1.34 0 0.68 0 0 Z " fill="#E8A328" transform="translate(121,68)"></path>
<path d="M0 0 C0 0.99 0 1.98 0 3 C-1.390625 4.38671875 -1.390625 4.38671875 -3.25 5.6875 C-4.15492188 6.34298828 -4.15492188 6.34298828 -5.078125 7.01171875 C-7 8 -7 8 -11 8 C-11.33 6.68 -11.66 5.36 -12 4 C-11.34 4 -10.68 4 -10 4 C-10 4.66 -10 5.32 -10 6 C-6.7 4.02 -3.4 2.04 0 0 Z " fill="#E1A436" transform="translate(297,117)"></path>
<path d="M0 0 C0.33 0 0.66 0 1 0 C1 1.65 1 3.3 1 5 C1.99 5 2.98 5 4 5 C4 7.31 4 9.62 4 12 C3.01 12 2.02 12 1 12 C0.63762737 10.37681021 0.28534843 8.7513642 -0.0625 7.125 C-0.25972656 6.22007812 -0.45695313 5.31515625 -0.66015625 4.3828125 C-1 2 -1 2 0 0 Z " fill="#EDA722" transform="translate(216,429)"></path>
<path d="M0 0 C0.66 0 1.32 0 2 0 C0.54845769 3.62885578 -1.2400638 5.15432673 -4.5 7.25 C-5.2940625 7.77078125 -6.088125 8.2915625 -6.90625 8.828125 C-9 10 -9 10 -11 10 C-9.78389183 6.35167549 -8.68563692 5.88114477 -5.5 3.875 C-2.5968522 2.13228203 -2.5968522 2.13228203 0 0 Z " fill="#E4A12E" transform="translate(185,399)"></path>
<path d="M0 0 C-1.7873962 1.33905267 -3.58004953 2.67109066 -5.375 4 C-6.37273437 4.7425 -7.37046875 5.485 -8.3984375 6.25 C-11 8 -11 8 -13 8 C-13 6 -13 6 -11.375 4.0625 C-7.74218967 0.90769103 -4.78105442 -1.59368481 0 0 Z " fill="#E3A232" transform="translate(449,210)"></path>
<path d="M0 0 C1.81883578 1.09369862 3.62990978 2.20031392 5.4375 3.3125 C6.44683594 3.92738281 7.45617187 4.54226562 8.49609375 5.17578125 C11 7 11 7 12 10 C7.15853891 8.53289058 3.44051028 5.6487256 0 2 C0 1.34 0 0.68 0 0 Z " fill="#E5A22B" transform="translate(77,235)"></path>
<path d="M0 0 C2.31 0.33 4.62 0.66 7 1 C7 2.65 7 4.3 7 6 C6.01 6 5.02 6 4 6 C4.33 5.01 4.66 4.02 5 3 C2.69 3 0.38 3 -2 3 C-1.34 2.67 -0.68 2.34 0 2 C0 1.34 0 0.68 0 0 Z " fill="#E5AB2A" transform="translate(480,176)"></path>
<path d="M0 0 C4.34170523 2.3836813 8.2064129 4.78119883 12 8 C11.67 8.66 11.34 9.32 11 10 C9.16106176 8.71632558 7.32897375 7.42283239 5.5 6.125 C4.4790625 5.40570313 3.458125 4.68640625 2.40625 3.9453125 C1.6121875 3.30335938 0.818125 2.66140625 0 2 C0 1.34 0 0.68 0 0 Z " fill="#E6A022" transform="translate(467,319)"></path>
<path d="M0 0 C0.66 0 1.32 0 2 0 C1.68950274 1.43793392 1.3765224 2.8753318 1.0625 4.3125 C0.88847656 5.11300781 0.71445312 5.91351563 0.53515625 6.73828125 C0 9 0 9 -1 12 C-1.66 12 -2.32 12 -3 12 C-2.40075776 7.80530429 -1.42500059 3.99000166 0 0 Z " fill="#D89A40" transform="translate(272,429)"></path>
<path d="M0 0 C0.66 0 1.32 0 2 0 C2.69965443 1.26418246 3.38434763 2.53665402 4.0625 3.8125 C4.63677734 4.87404297 4.63677734 4.87404297 5.22265625 5.95703125 C6 8 6 8 5 11 C4.34 11 3.68 11 3 11 C2.01 7.37 1.02 3.74 0 0 Z " fill="#F4A724" transform="translate(97,67)"></path>
<path d="M0 0 C3.70129644 0.38961015 5.61879622 1.11749016 8 4 C3.25 3.125 3.25 3.125 1 2 C1 3.65 1 5.3 1 7 C0.34 6.67 -0.32 6.34 -1 6 C-1.042721 4.33388095 -1.04063832 2.66617115 -1 1 C-0.67 0.67 -0.34 0.34 0 0 Z " fill="#DC9F30" transform="translate(94,50)"></path>
<path d="M0 0 C0 0.66 0 1.32 0 2 C-1.78398614 3.28006797 -3.62853906 4.47660351 -5.5 5.625 C-7.03140625 6.57246094 -7.03140625 6.57246094 -8.59375 7.5390625 C-9.3878125 8.02117187 -10.181875 8.50328125 -11 9 C-9.65194669 5.84555525 -8.32292677 4.18777177 -5.5 2.25 C-4.8915625 1.82203125 -4.283125 1.3940625 -3.65625 0.953125 C-2 0 -2 0 0 0 Z " fill="#E2A230" transform="translate(463,198)"></path>
<path d="M0 0 C0.66 0 1.32 0 2 0 C2.66 3.63 3.32 7.26 4 11 C3.01 10.67 2.02 10.34 1 10 C0.67 6.7 0.34 3.4 0 0 Z " fill="#D2A33E" transform="translate(357,342)"></path>
<path d="M0 0 C0.66 0 1.32 0 2 0 C2.99 3.3 3.98 6.6 5 10 C3.68 9.67 2.36 9.34 1 9 C0.67 6.03 0.34 3.06 0 0 Z " fill="#DD9F2F" transform="translate(258,40)"></path>
<path d="M0 0 C2.9375 0.8125 2.9375 0.8125 6 2 C6.33 2.99 6.66 3.98 7 5 C7.99 5.33 8.98 5.66 10 6 C9.01 6.33 8.02 6.66 7 7 C4.00183515 5.22557591 1.46459429 3.46459429 -1 1 C-0.67 0.67 -0.34 0.34 0 0 Z " fill="#F1AC29" transform="translate(287,389)"></path>
<path d="M0 0 C0 3 0 3 -2 6 C-1.01 6.66 -0.02 7.32 1 8 C-0.65 8 -2.3 8 -4 8 C-4.33 6.68 -4.66 5.36 -5 4 C-3.35 2.68 -1.7 1.36 0 0 Z " fill="#D69D3B" transform="translate(6,330)"></path>
<path d="M0 0 C2.31 0 4.62 0 7 0 C5.35 1.65 3.7 3.3 2 5 C0.68 4.01 -0.64 3.02 -2 2 C-1.34 2 -0.68 2 0 2 C0 1.34 0 0.68 0 0 Z " fill="#EFA81E" transform="translate(2,178)"></path>
<path d="M0 0 C0.66 0.66 1.32 1.32 2 2 C0.57140593 3.03325986 -0.86822383 4.05127634 -2.3125 5.0625 C-3.51326172 5.91521484 -3.51326172 5.91521484 -4.73828125 6.78515625 C-5.48464844 7.18605469 -6.23101562 7.58695312 -7 8 C-7.99 7.67 -8.98 7.34 -10 7 C-6.7 4.69 -3.4 2.38 0 0 Z " fill="#E59F23" transform="translate(308,109)"></path>
<path d="M0 0 C0.33 0.66 0.66 1.32 1 2 C1.99 2.33 2.98 2.66 4 3 C4.625 5.375 4.625 5.375 5 8 C4.34 8.66 3.68 9.32 3 10 C0 3.375 0 3.375 0 0 Z " fill="#EEA322" transform="translate(248,13)"></path>
<path d="M0 0 C0.66 0 1.32 0 2 0 C5 6.5 5 6.5 5 11 C4.34 11 3.68 11 3 11 C2.01 7.37 1.02 3.74 0 0 Z " fill="#E5A133" transform="translate(232,483)"></path>
<path d="M0 0 C0.33 0.66 0.66 1.32 1 2 C1.804375 2.12375 2.60875 2.2475 3.4375 2.375 C6 3 6 3 7.3125 5.0625 C7.6528125 6.0215625 7.6528125 6.0215625 8 7 C4.06326356 5.68775452 1.77280706 4.08089673 -1 1 C-0.67 0.67 -0.34 0.34 0 0 Z " fill="#F1AC23" transform="translate(346,430)"></path>
<path d="M0 0 C0 0.99 0 1.98 0 3 C-5.34883721 8 -5.34883721 8 -8 8 C-6.49776416 3.79373966 -3.71449966 2.26099979 0 0 Z " fill="#E2A128" transform="translate(333,91)"></path>
<path d="M0 0 C3.09751507 3.09751507 2.97001681 6.62077344 3.0625 10.875 C3.041875 11.57625 3.02125 12.2775 3 13 C2.34 13 1.68 13 1 13 C0.67 8.71 0.34 4.42 0 0 Z " fill="#E6A327" transform="translate(268,68)"></path>
<path d="M0 0 C0.99 0.33 1.98 0.66 3 1 C2.01 3.97 1.02 6.94 0 10 C-0.66 10 -1.32 10 -2 10 C-1.46274105 6.62294375 -0.88935377 3.303314 0 0 Z " fill="#F0A526" transform="translate(390,64)"></path>
<path d="M0 0 C3.93673644 1.31224548 6.22719294 2.91910327 9 6 C5.21213403 5.4739075 2.82847776 4.61896089 0 2 C0 1.34 0 0.68 0 0 Z " fill="#F2A621" transform="translate(355,437)"></path>
<path d="M0 0 C0.99 0.33 1.98 0.66 3 1 C3.73046875 2.84765625 3.73046875 2.84765625 4.1875 5.0625 C4.34605469 5.79597656 4.50460937 6.52945312 4.66796875 7.28515625 C4.83232422 8.13400391 4.83232422 8.13400391 5 9 C4.34 9 3.68 9 3 9 C0 3.375 0 3.375 0 0 Z " fill="#DA9F35" transform="translate(372,393)"></path>
<path d="M0 0 C0.33 0.99 0.66 1.98 1 3 C-4.75 8 -4.75 8 -7 8 C-5.50902342 4.2047869 -3.24299151 2.38957269 0 0 Z " fill="#E19F2B" transform="translate(69,283)"></path>
<path d="M0 0 C6.70909091 2.60909091 6.70909091 2.60909091 9 4 C9.33 4.99 9.66 5.98 10 7 C5.61308455 6.49381745 3.15608721 3.86917019 0 1 C0 0.67 0 0.34 0 0 Z " fill="#F2A71E" transform="translate(39,208)"></path>
<path d="M0 0 C0.99 0.33 1.98 0.66 3 1 C0.36 2.98 -2.28 4.96 -5 7 C-5 6.01 -5 5.02 -5 4 C-2.6875 1.75 -2.6875 1.75 0 0 Z " fill="#D69E39" transform="translate(15,323)"></path>
<path d="M0 0 C0.99 0.33 1.98 0.66 3 1 C0.36 2.98 -2.28 4.96 -5 7 C-5.66 6.67 -6.32 6.34 -7 6 C-5.62209707 3.24419414 -3.62850007 2.51138754 -1 1 C-0.67 0.67 -0.34 0.34 0 0 Z " fill="#E6A02E" transform="translate(432,219)"></path>
<path d="M0 0 C1.32 0 2.64 0 4 0 C4 0.66 4 1.32 4 2 C5.98 2 7.96 2 10 2 C10 2.33 10 2.66 10 3 C6.04 3 2.08 3 -2 3 C-1.34 2.67 -0.68 2.34 0 2 C0 1.34 0 0.68 0 0 Z " fill="#EAA224" transform="translate(30,175)"></path>
<path d="M0 0 C2.97 1.98 2.97 1.98 6 4 C5.67 4.99 5.34 5.98 5 7 C3.02 5.35 1.04 3.7 -1 2 C-0.67 1.34 -0.34 0.68 0 0 Z " fill="#EFA924" transform="translate(338,424)"></path>
<path d="M0 0 C3.34249629 0.59687434 5.46436342 1.73603877 8 4 C8 4.66 8 5.32 8 6 C5.0280615 4.87548273 2.66559313 3.77706209 0 2 C0 1.34 0 0.68 0 0 Z " fill="#D5A048" transform="translate(389,263)"></path>
<path d="M0 0 C4.67692308 1.47692308 4.67692308 1.47692308 6.3125 4.125 C6.539375 4.74375 6.76625 5.3625 7 6 C2.32307692 4.52307692 2.32307692 4.52307692 0.6875 1.875 C0.460625 1.25625 0.23375 0.6375 0 0 Z " fill="#EDA725" transform="translate(376,452)"></path>
<path d="M0 0 C0.66 0.66 1.32 1.32 2 2 C0.87926138 2.83905565 -0.24674547 3.67107831 -1.375 4.5 C-2.00148437 4.9640625 -2.62796875 5.428125 -3.2734375 5.90625 C-5 7 -5 7 -7 7 C-7 6.34 -7 5.68 -7 5 C-5.46875 3.7109375 -5.46875 3.7109375 -3.5 2.375 C-2.8503125 1.92898438 -2.200625 1.48296875 -1.53125 1.0234375 C-1.0259375 0.68570312 -0.520625 0.34796875 0 0 Z " fill="#EBA426" transform="translate(139,432)"></path>
<path d="M0 0 C0 0.99 0 1.98 0 3 C-1.8125 4.75 -1.8125 4.75 -4 6 C-4.99 5.67 -5.98 5.34 -7 5 C-2.25 1.125 -2.25 1.125 0 0 Z " fill="#E9A725" transform="translate(423,226)"></path>
<path d="M0 0 C2.12046792 3.53411321 2.53199289 6.94393835 3 11 C0.5091419 8.07594919 -0.59599278 5.83806856 -1 2 C-0.67 1.34 -0.34 0.68 0 0 Z " fill="#E3A329" transform="translate(275,87)"></path>
<path d="M0 0 C0.33 0 0.66 0 1 0 C0.67 2.64 0.34 5.28 0 8 C-0.99 8.33 -1.98 8.66 -3 9 C-2.01 6.03 -1.02 3.06 0 0 Z " fill="#E7A124" transform="translate(239,10)"></path>
<path d="M0 0 C0.66 0 1.32 0 2 0 C2.125 5.75 2.125 5.75 1 8 C0.34 8 -0.32 8 -1 8 C-0.67 5.36 -0.34 2.72 0 0 Z " fill="#DCAA48" transform="translate(130,339)"></path>
<path d="M0 0 C0.99 0.33 1.98 0.66 3 1 C-2.75 6 -2.75 6 -5 6 C-5 5.34 -5 4.68 -5 4 C-2.6875 1.8125 -2.6875 1.8125 0 0 Z " fill="#D89C36" transform="translate(414,232)"></path>
<path d="M0 0 C0.99 0.33 1.98 0.66 3 1 C3 3.31 3 5.62 3 8 C2.34 8 1.68 8 1 8 C0.67 5.36 0.34 2.72 0 0 Z " fill="#EBAA36" transform="translate(129,168)"></path>
</svg>